<?xml version="1.0" encoding="UTF-8" standalone="no"?><!DOCTYPE svg PUBLIC "-//W3C//DTD SVG 1.1//EN" "http://www.w3.org/Graphics/SVG/1.1/DTD/svg11.dtd"><svg width="100%" height="100%" viewBox="0 0 3508 2481" version="1.1" xmlns="http://www.w3.org/2000/svg" xmlns:xlink="http://www.w3.org/1999/xlink" xml:space="preserve" xmlns:serif="http://www.serif.com/" style="fill-rule:evenodd;clip-rule:evenodd;stroke-linejoin:round;stroke-miterlimit:2;"><g><g><path d="M1209.323,1597.212c0,9.114 -2.937,15.393 -8.811,18.836c-2.836,1.62 -5.772,2.329 -8.811,2.127l-11.241,0l0,-178.337l11.241,0c3.038,-0.203 5.975,0.506 8.811,2.127c5.874,3.443 8.811,9.722 8.811,18.836l0,136.411Zm50.129,-144.31c0,-5.671 -0.101,-10.532 -0.304,-14.583c-0.608,-10.532 -2.025,-19.14 -4.253,-25.824c-5.671,-16.608 -18.431,-24.913 -38.28,-24.913l-87.194,0l0,407.411l51.04,0l0,-124.563l36.154,0c19.849,0 32.609,-8.304 38.28,-24.913c2.228,-6.481 3.646,-15.089 4.253,-25.824c0.203,-4.051 0.304,-8.912 0.304,-14.583l0,-152.21Z" style="fill-rule:nonzero;"/><path d="M1322.645,1698.078l13.064,-106.942l13.368,106.942l-26.432,0Zm38.584,96.916l51.04,0l-51.04,-407.411l-50.737,0l-51.04,407.411l51.04,0l5.772,-46.179l39.192,0l5.772,46.179Z" style="fill-rule:nonzero;"/><path d="M1507.362,1597.212c0,9.114 -2.937,15.393 -8.811,18.836c-2.836,1.62 -5.772,2.329 -8.811,2.127l-11.241,0l0,-178.337l11.241,0c3.038,-0.203 5.975,0.506 8.811,2.127c5.874,3.443 8.811,9.722 8.811,18.836l0,136.411Zm50.129,-144.31c0,-5.671 -0.101,-10.532 -0.304,-14.583c-0.608,-10.532 -2.025,-19.14 -4.253,-25.824c-5.671,-16.608 -18.431,-24.913 -38.28,-24.913l-87.194,0l0,407.411l51.04,0l0,-124.563l36.154,0c19.849,0 32.609,-8.304 38.28,-24.913c2.228,-6.481 3.646,-15.089 4.253,-25.824c0.203,-4.051 0.304,-8.912 0.304,-14.583l0,-152.21Z" style="fill-rule:nonzero;"/><path d="M1674.459,1438.623l0,-51.04l-101.777,0l0,407.411l101.777,0l0,-51.04l-50.737,0l0,-126.993l50.737,0l0,-51.04l-50.737,0l0,-127.297l50.737,0Z" style="fill-rule:nonzero;"/><path d="M1740.69,1439.838l11.241,0c3.038,-0.203 5.975,0.506 8.811,2.127c5.874,3.443 8.811,9.722 8.811,18.836l0,119.398c0,9.317 -2.937,15.596 -8.811,18.836c-2.836,1.62 -5.772,2.329 -8.811,2.127l-11.241,0l0,-161.324Zm-51.04,-52.256l0,407.411l51.04,0l0,-125.17l8.507,0c2.836,-0.203 5.772,0.506 8.811,2.127c2.633,1.418 4.658,3.443 6.076,6.076c1.823,3.443 2.734,7.697 2.734,12.76l0,104.207l50.129,0l0,-118.79c-0.203,-7.899 -0.709,-14.482 -1.519,-19.748c-2.025,-13.975 -6.583,-24.102 -13.672,-30.381c5.874,-8.304 10.532,-17.925 13.975,-28.862c2.633,-9.114 3.95,-17.216 3.95,-24.305l0,-120.006c0,-5.671 -0.101,-10.532 -0.304,-14.583c-0.608,-10.532 -2.025,-19.14 -4.253,-25.824c-5.671,-16.608 -18.431,-24.913 -38.28,-24.913l-87.194,0Z" style="fill-rule:nonzero;"/><path d="M1962.168,1387.582l0,178.337l-36.457,0l0,-178.337l-51.04,0l0,407.411l51.04,0l0,-178.337l36.457,0l0,178.337l51.04,0l0,-407.411l-51.04,0Z" style="fill-rule:nonzero;"/><path d="M2080.047,1443.484c0,-4.658 1.722,-8.608 5.165,-11.849c3.241,-3.443 7.19,-5.165 11.849,-5.165c4.658,0 8.709,1.722 12.152,5.165c3.241,3.241 4.861,7.19 4.861,11.849l0,295.912c0,4.658 -1.62,8.608 -4.861,11.849c-3.443,3.241 -7.494,4.861 -12.152,4.861c-4.658,0 -8.608,-1.62 -11.849,-4.861c-3.443,-3.241 -5.165,-7.19 -5.165,-11.849l0,-295.912Zm17.013,-62.585c-18.836,0 -35.04,6.684 -48.61,20.052c-13.368,13.57 -20.052,29.774 -20.052,48.61l0,283.76c0,18.836 6.684,35.04 20.052,48.61c13.57,13.368 29.774,20.052 48.61,20.052c19.039,0 35.242,-6.684 48.61,-20.052c13.57,-13.57 20.355,-29.774 20.355,-48.61l0,-283.76c0,-18.836 -6.785,-35.04 -20.355,-48.61c-13.368,-13.368 -29.571,-20.052 -48.61,-20.052Z" style="fill-rule:nonzero;"/><path d="M2232.864,1443.484c0,-4.658 1.722,-8.608 5.165,-11.849c3.241,-3.443 7.19,-5.165 11.849,-5.165c4.658,0 8.709,1.722 12.152,5.165c3.241,3.241 4.861,7.19 4.861,11.849l0,295.912c0,4.658 -1.62,8.608 -4.861,11.849c-3.443,3.241 -7.494,4.861 -12.152,4.861c-4.658,0 -8.608,-1.62 -11.849,-4.861c-3.443,-3.241 -5.165,-7.19 -5.165,-11.849l0,-295.912Zm17.013,-62.585c-18.836,0 -35.04,6.684 -48.61,20.052c-13.368,13.57 -20.052,29.774 -20.052,48.61l0,283.76c0,18.836 6.684,35.04 20.052,48.61c13.57,13.368 29.774,20.052 48.61,20.052c19.039,0 35.242,-6.684 48.61,-20.052c13.57,-13.57 20.355,-29.774 20.355,-48.61l0,-283.76c0,-18.836 -6.785,-35.04 -20.355,-48.61c-13.368,-13.368 -29.571,-20.052 -48.61,-20.052Z" style="fill-rule:nonzero;"/><path d="M2435.81,1438.623l0,-51.04l-101.777,0l0,407.411l51.04,0l0,-178.034l34.938,0l0,-51.04l-34.938,0l0,-127.297l50.737,0Z" style="fill-rule:nonzero;"/></g><g transform="matrix(1,0,0,1,0,185.968165)"><text x="1151.231px" y="983.498px" style="font-family:'Overpass-Bold', 'Overpass';font-weight:700;font-size:62.5px;">E<tspan x="1189.606px " y="983.498px ">S</tspan></text><g transform="matrix(62.5,0,0,62.5,1230.52753,1054.331405)"></g><text x="1148.653px" y="1054.331px" style="font-family:'Overpass-Bold', 'Overpass';font-weight:700;font-size:62.5px;">T<tspan x="1186.153px " y="1054.331px ">D</tspan></text></g><g transform="matrix(62.5,0,0,62.5,2158.343258,1936.900969)"></g><text x="1349.531px" y="1936.901px" style="font-family:'Overpass-Bold', 'Overpass';font-weight:700;font-size:62.5px;">B<tspan x="1392.406px 1434.625px 1478.812px 1523.562px 1567.718px 1586.062px " y="1936.901px 1936.901px 1936.901px 1936.901px 1936.901px 1936.901px ">RANDIN</tspan>G D<tspan x="1733.312px 1771.687px " y="1936.901px 1936.901px ">ES</tspan>IGN S<tspan x="1968.687px " y="1936.901px ">T</tspan>UD<tspan x="2094.968px 2113.218px " y="1936.901px 1936.901px ">IO</tspan></text><g transform="matrix(1,0,0,1,1168.724497,185.968165)"><text x="1149.934px" y="983.498px" style="font-family:'Overpass-Bold', 'Overpass';font-weight:700;font-size:62.5px;">20</text><g transform="matrix(62.5,0,0,62.5,1227.793155,1054.331405)"></g><text x="1151.387px" y="1054.331px" style="font-family:'Overpass-Bold', 'Overpass';font-weight:700;font-size:62.5px;">25</text></g><path id="ICON" d="M1717.159,1196.223c-0.012,0.018 -0.016,0.01 -0.016,0.01l0.016,-0.01Zm-330.067,-670.327c0.501,1.039 0.046,0.016 0.046,0.016c0,0 -0.016,-0.005 -0.046,-0.016c-0.145,-0.301 -0.371,-0.775 -0.71,-1.497c-1.513,-3.215 -5.296,-10.024 -3.972,-10.591c1.324,-0.567 4.917,-3.972 15.698,-1.891c10.373,2.002 28.099,11.707 29.426,12.439c0.067,0.055 0.079,0.044 0.079,0.044c-0,0 -0.027,-0.015 -0.079,-0.044c-0.203,-0.167 -0.911,-0.945 -3.325,-4.495c-3.215,-4.728 -0.567,-5.296 -0.567,-5.296c0,0 2.08,-1.891 16.644,-3.972c14.563,-2.08 28.748,10.97 28.559,9.457c-0.189,-1.513 1.135,-7.944 3.972,-9.835c2.837,-1.891 13.05,-2.459 21.75,-1.324c8.7,1.135 9.457,5.485 9.457,5.485c0,0 -1.702,0.567 2.459,-0.567c4.161,-1.135 20.237,-2.837 25.533,-0.757c5.296,2.08 4.917,8.511 7.565,7.187c2.648,-1.324 20.048,-1.513 26.478,0.189c6.118,1.619 15.317,34.224 16.197,37.391c-1.805,-0.049 0.068,0.247 0.068,0.247c0,0 -0.023,-0.085 -0.068,-0.247c0.695,0.019 1.936,0.089 4.04,0.247c7.565,0.567 12.861,1.324 15.698,6.809c2.837,5.485 -2.837,19.481 -2.837,19.481l2.08,0.378c0,0 27.046,2.08 28.937,7.944c1.891,5.863 -10.402,20.237 -10.402,20.237c0,0 -4.946,0.003 4.056,0.786c9.003,0.783 9.981,1.957 11.351,5.676c1.37,3.719 -7.829,13.504 -7.829,13.504c0,0 1.761,-0.391 10.373,1.37c8.611,1.761 8.807,5.676 8.416,11.743c-0.391,6.067 -8.22,17.223 -8.22,17.223c0,0 9.199,1.174 12.917,3.131c3.719,1.957 3.523,5.676 2.74,10.764c-0.783,5.089 -9.981,19.18 -9.981,19.18c0,0 13.896,0.391 21.137,2.74c7.241,2.349 0.587,22.311 0.587,22.311c0,0 4.697,0.196 9.981,0.587c5.284,0.391 6.654,0.979 9.59,5.676c2.936,4.697 -0.979,16.049 -0.979,16.049c0,0 12.917,-0.783 17.027,0.391c4.11,1.174 6.459,1.957 6.654,9.786c0.196,7.829 -3.987,13.662 -3.987,13.662l4.766,2.542c0,0 30.502,13.98 61.957,16.84c31.455,2.86 77.208,-4.448 126.138,0.635c48.93,5.084 78.797,67.676 78.797,67.676c0,0 12.709,5.401 32.091,17.157c19.381,11.756 100.085,66.723 123.596,75.619c23.512,8.896 55.285,-15.886 55.285,-15.886c0,0 0.318,1.271 -4.448,14.298c-4.766,13.027 -25.101,20.017 -25.101,20.017c0,0 -2.542,0 10.803,2.224c13.345,2.224 33.679,-5.401 33.679,-5.401c0,0 0.953,-0.635 -5.401,9.85c-6.355,10.485 -27.325,25.101 -27.325,25.101c0,0 11.756,0.635 5.084,4.448c-6.672,3.813 -20.017,12.709 -34.632,15.886c-14.616,3.177 -18.428,8.579 -49.883,-9.214c-31.455,-17.793 -63.228,-82.292 -73.078,-95.636c-9.85,-13.345 -32.091,-34.632 -32.091,-34.632c0,0 8.579,28.278 16.204,55.92c7.625,27.642 0.687,90.733 0.687,90.733l61.943,39.926l21.724,62.531l39.926,62.531c0,0 26.421,29.357 27.302,41.981c0.881,12.624 -3.229,14.385 -3.229,14.385l9.981,47.559l-91.007,2.936c0,0 46.678,-43.742 40.219,-47.265c-6.459,-3.523 -10.275,-4.11 -7.926,-15.266c2.349,-11.156 -4.11,-17.321 -4.11,-17.321l-81.613,-110.97c0,0 -12.917,0.294 -38.458,-5.871c-25.541,-6.165 -49.907,-17.908 -49.907,-17.908c0,0 11.743,25.247 5.578,28.476c-6.165,3.229 -105.392,16.44 -134.749,19.082c-29.357,2.642 -24.073,12.917 -24.073,12.917l8.807,12.33l-63.983,40.503c0.09,-0.136 0.641,-1.773 3.423,-19.953c2.366,-15.456 15.336,-43.533 21.621,-56.503c2.109,-4.333 6.103,-7.448 10.819,-8.439c20.913,-4.328 79.3,-16.456 85.073,-18.139c7.046,-2.055 0.587,-5.578 0.587,-5.578l-53.723,-23.779c-56.366,-35.816 -47.852,-75.154 -47.852,-75.154c0,0 -7.926,5.284 -52.843,16.146c-44.916,10.862 -123.887,-0.587 -123.887,-0.587c0,0 -0.881,3.523 -0.294,19.963c0.587,16.44 -10.275,46.384 -10.275,46.384c0,0 1.174,9.688 3.523,52.843c2.349,43.155 11.156,122.126 11.156,122.126l6.752,50.494l-93.062,1.174c0,0 56.953,-46.384 53.136,-53.136c-3.816,-6.752 -9.394,-17.321 -9.394,-17.321c0,0 -0.587,-44.329 -2.936,-61.063c-2.349,-16.734 -11.449,-12.036 -12.917,-26.128c-1.421,-13.645 -6.146,-70.784 -6.444,-74.389c0.002,-0.087 -0.015,-0.178 -0.015,-0.178c0,0 0.005,0.061 0.015,0.178c-0.015,0.532 -0.776,0.864 -10.877,-21.609c-9.786,-21.775 -5.096,-38.452 -3.259,-43.404c0.14,-0.345 0.102,-0.737 -0.101,-1.049c-0.203,-0.312 -0.546,-0.506 -0.918,-0.518c-9.744,-0.327 -59.994,-2 -67.941,-2c-8.807,0 -9.688,13.504 -9.101,20.844c0.587,7.339 16.158,76.555 18.804,84.491c2.645,7.936 14.349,5.153 14.349,5.153l15.853,-10.569l34.054,71.925l-92.959,-34.931c-2.448,-0.92 -4.276,-3.001 -4.871,-5.548c-2.618,-11.325 -10.018,-44.117 -14.314,-71.107c-5.284,-33.203 -22.311,-71.631 -23.779,-75.741c-1.468,-4.11 -4.991,-3.523 2.055,-10.569c5.469,-5.469 15.536,-14.475 19.768,-18.233c1.207,-1.072 2.894,-1.417 4.425,-0.907l2.815,0.938c0,0 22.018,7.339 33.761,4.991c8.992,-1.798 18.19,-4.423 22.006,-5.554c0.471,-0.142 0.858,-0.478 1.067,-0.923c0.208,-0.445 0.217,-0.958 0.025,-1.41c-3.931,-9.656 -22.385,-57.523 -27.883,-117.996c-6.165,-67.815 43.631,-189.555 43.631,-189.555l-1.984,-14.79l-26.875,0.902c0,0 5.231,23.087 -5.952,45.814c-11.183,22.727 -33.549,29.581 -33.549,29.581c0,0 -1.263,1.082 -3.607,8.658c-2.345,7.576 -8.658,31.204 -8.658,31.204l7.936,15.692c0,0 -3.968,7.936 -24.17,11.544c-20.201,3.607 -23.087,-7.576 -28.318,-16.053c-5.231,-8.477 -0.721,-3.788 0.541,-9.199c1.263,-5.411 0.6,-3.002 -0.721,-11.369c-1.321,-8.367 1.321,-169.097 1.321,-169.097l-25.541,-6.605l22.018,-9.247l-21.137,-16.734l36.479,0.706c0,0 1.513,0.567 -1.324,-2.08c-2.837,-2.648 -4.35,-8.7 -2.837,-10.402c1.513,-1.702 -4.161,-3.594 11.537,-2.459c15.261,1.103 34.633,7.569 35.7,7.928Zm-22.394,75.863c-4.969,3.55 -5.901,4.539 -3.48,10.894c2.421,6.355 7.565,8.624 7.565,8.624c0,0 3.783,0 4.237,-5.144c0.454,-5.144 -0.183,-10.553 -2.723,-12.71c-1.92,-1.63 -4.877,-2.18 -5.598,-1.664Z"/></g></svg>