<?xml version="1.0" encoding="UTF-8" standalone="no"?><!DOCTYPE svg PUBLIC "-//W3C//DTD SVG 1.1//EN" "http://www.w3.org/Graphics/SVG/1.1/DTD/svg11.dtd"><svg width="100%" height="100%" viewBox="0 0 3508 2481" version="1.1" xmlns="http://www.w3.org/2000/svg" xmlns:xlink="http://www.w3.org/1999/xlink" xml:space="preserve" xmlns:serif="http://www.serif.com/" style="fill-rule:evenodd;clip-rule:evenodd;stroke-linejoin:round;stroke-miterlimit:2;"><path id="ICON" d="M2346.663,2677.826c-0.034,0.051 -0.045,0.029 -0.045,0.029l0.045,-0.029Zm-871.757,-988.413c-3.082,-20.956 -5.718,-42.659 -7.745,-64.955c-17.803,-195.836 125.998,-547.397 125.998,-547.397l-5.73,-42.712l-77.61,2.604c0,0 15.105,66.672 -17.189,132.302c-32.294,65.63 -96.882,85.423 -96.882,85.423c0,0 -3.646,3.125 -10.417,25.002c-6.771,21.877 -25.002,90.111 -25.002,90.111l22.918,45.316c0,0 -11.459,22.918 -69.797,33.336c-58.338,10.417 -66.672,-21.877 -81.777,-46.358c-15.105,-24.481 -2.083,-10.938 1.563,-26.565c3.646,-15.626 1.731,-8.67 -2.083,-32.831c-3.815,-24.162 3.815,-488.319 3.815,-488.319l-73.756,-19.075l63.583,-26.705l-61.04,-48.323l105.345,2.039c0,0 4.369,1.639 -3.823,-6.008c-8.193,-7.646 -12.562,-25.124 -8.193,-30.04c4.369,-4.916 -12.016,-10.377 33.317,-7.1c44.07,3.186 100.013,21.857 103.094,22.894c1.446,3 0.133,0.045 0.133,0.045l-0.133,-0.045c-0.419,-0.869 -1.07,-2.238 -2.052,-4.324c-4.369,-9.285 -15.293,-28.947 -11.47,-30.586c3.823,-1.639 14.201,-11.47 45.333,-5.462c29.954,5.781 81.144,33.808 84.975,35.921c0.194,0.16 0.228,0.126 0.228,0.126l-0.228,-0.126c-0.586,-0.483 -2.63,-2.728 -9.603,-12.982c-9.285,-13.654 -1.639,-15.293 -1.639,-15.293c0,0 6.008,-5.462 48.063,-11.47c42.056,-6.008 83.019,31.678 82.472,27.309c-0.546,-4.369 3.277,-22.939 11.47,-28.401c8.193,-5.462 37.686,-7.1 62.81,-3.823c25.124,3.277 27.309,15.839 27.309,15.839c0,0 -4.916,1.639 7.1,-1.639c12.016,-3.277 58.441,-8.193 73.734,-2.185c15.293,6.008 14.201,24.578 21.847,20.755c7.646,-3.823 57.895,-4.369 76.465,0.546c17.667,4.677 44.233,98.833 46.774,107.976c-5.211,-0.141 0.197,0.712 0.197,0.712l-0.197,-0.712c2.007,0.055 5.591,0.257 11.667,0.712c21.847,1.639 37.14,3.823 45.333,19.662c8.193,15.839 -8.193,56.256 -8.193,56.256l6.008,1.092c0,0 78.103,6.008 83.565,22.939c5.462,16.931 -30.04,58.441 -30.04,58.441c0,0 -14.284,0.009 11.714,2.269c25.998,2.261 28.824,5.652 32.781,16.39c3.956,10.738 -22.607,38.998 -22.607,38.998c0,0 5.087,-1.13 29.955,3.956c24.868,5.087 25.433,16.39 24.303,33.911c-1.13,17.521 -23.738,49.736 -23.738,49.736c0,0 26.564,3.391 37.302,9.043c10.738,5.652 10.173,16.39 7.913,31.085c-2.261,14.695 -28.824,55.388 -28.824,55.388c0,0 40.128,1.13 61.04,7.913c20.912,6.782 1.696,64.431 1.696,64.431c0,0 13.564,0.565 28.824,1.696c15.26,1.13 19.216,2.826 27.694,16.39c8.478,13.564 -2.826,46.345 -2.826,46.345c0,0 13.333,-0.808 26.593,-0.733c-117.752,128.307 -243.764,234.354 -359.984,269.22c-119.603,35.881 -284.024,48.612 -442.351,50.036Zm-146.082,-728.281c-14.349,10.252 -17.041,13.108 -10.05,31.46c6.991,18.351 21.847,24.906 21.847,24.906c0,0 10.923,0 12.234,-14.856c1.311,-14.856 -0.53,-30.475 -7.865,-36.703c-5.544,-4.708 -14.083,-6.295 -16.167,-4.806Z"/></svg>