<?xml version="1.0" encoding="UTF-8" standalone="no"?><!DOCTYPE svg PUBLIC "-//W3C//DTD SVG 1.1//EN" "http://www.w3.org/Graphics/SVG/1.1/DTD/svg11.dtd"><svg width="100%" height="100%" viewBox="0 0 3508 2481" version="1.1" xmlns="http://www.w3.org/2000/svg" xmlns:xlink="http://www.w3.org/1999/xlink" xml:space="preserve" xmlns:serif="http://www.serif.com/" style="fill-rule:evenodd;clip-rule:evenodd;stroke-linejoin:round;stroke-miterlimit:2;"><g id="WORDMARK-2" serif:id="WORDMARK 2"><g><path d="M1242.414,827.412c0,17.578 -5.664,29.687 -16.992,36.328c-5.469,3.125 -11.133,4.492 -16.992,4.102l-21.68,0l0,-343.945l21.68,0c5.859,-0.391 11.523,0.977 16.992,4.102c11.328,6.641 16.992,18.75 16.992,36.328l0,263.086Zm96.68,-278.32c0,-10.938 -0.195,-20.313 -0.586,-28.125c-1.172,-20.313 -3.906,-36.914 -8.203,-49.805c-10.938,-32.031 -35.547,-48.047 -73.828,-48.047l-168.164,0l0,785.742l98.438,0l0,-240.234l69.727,0c38.281,0 62.891,-16.016 73.828,-48.047c4.297,-12.5 7.031,-29.102 8.203,-49.805c0.391,-7.813 0.586,-17.188 0.586,-28.125l0,-293.555Z" style="fill-rule:nonzero;"/><path d="M1460.968,1021.944l25.195,-206.25l25.781,206.25l-50.977,0Zm74.414,186.914l98.438,0l-98.438,-785.742l-97.852,0l-98.438,785.742l98.438,0l11.133,-89.062l75.586,0l11.133,89.062Z" style="fill-rule:nonzero;"/><path d="M1817.218,827.412c0,17.578 -5.664,29.687 -16.992,36.328c-5.469,3.125 -11.133,4.492 -16.992,4.102l-21.68,0l0,-343.945l21.68,0c5.859,-0.391 11.523,0.977 16.992,4.102c11.328,6.641 16.992,18.75 16.992,36.328l0,263.086Zm96.68,-278.32c0,-10.938 -0.195,-20.313 -0.586,-28.125c-1.172,-20.313 -3.906,-36.914 -8.203,-49.805c-10.938,-32.031 -35.547,-48.047 -73.828,-48.047l-168.164,0l0,785.742l98.438,0l0,-240.234l69.727,0c38.281,0 62.891,-16.016 73.828,-48.047c4.297,-12.5 7.031,-29.102 8.203,-49.805c0.391,-7.813 0.586,-17.188 0.586,-28.125l0,-293.555Z" style="fill-rule:nonzero;"/><path d="M2139.484,521.553l0,-98.437l-196.289,0l0,785.742l196.289,0l0,-98.438l-97.852,0l0,-244.922l97.852,0l0,-98.437l-97.852,0l0,-245.508l97.852,0Z" style="fill-rule:nonzero;"/><path d="M2267.218,523.897l21.68,0c5.859,-0.391 11.523,0.977 16.992,4.102c11.328,6.641 16.992,18.75 16.992,36.328l0,230.273c0,17.969 -5.664,30.078 -16.992,36.328c-5.469,3.125 -11.133,4.492 -16.992,4.102l-21.68,0l0,-311.133Zm-98.438,-100.781l0,785.742l98.438,0l0,-241.406l16.406,0c5.469,-0.391 11.133,0.977 16.992,4.102c5.078,2.734 8.984,6.641 11.719,11.719c3.516,6.641 5.273,14.844 5.273,24.609l0,200.977l96.68,0l0,-229.102c-0.391,-15.234 -1.367,-27.93 -2.93,-38.086c-3.906,-26.953 -12.695,-46.484 -26.367,-58.594c11.328,-16.016 20.312,-34.57 26.953,-55.664c5.078,-17.578 7.617,-33.203 7.617,-46.875l0,-231.445c0,-10.938 -0.195,-20.313 -0.586,-28.125c-1.172,-20.313 -3.906,-36.914 -8.203,-49.805c-10.938,-32.031 -35.547,-48.047 -73.828,-48.047l-168.164,0Z" style="fill-rule:nonzero;"/></g><g><path d="M1381.574,1257.981l0,343.945l-70.312,0l0,-343.945l-98.438,0l0,785.742l98.438,0l0,-343.945l70.312,0l0,343.945l98.438,0l0,-785.742l-98.438,0Z" style="fill-rule:nonzero;"/><path d="M1608.917,1365.793c0,-8.984 3.32,-16.602 9.961,-22.852c6.25,-6.641 13.867,-9.961 22.852,-9.961c8.984,0 16.797,3.32 23.438,9.961c6.25,6.25 9.375,13.867 9.375,22.852l0,570.703c0,8.984 -3.125,16.602 -9.375,22.852c-6.641,6.25 -14.453,9.375 -23.438,9.375c-8.984,0 -16.602,-3.125 -22.852,-9.375c-6.641,-6.25 -9.961,-13.867 -9.961,-22.852l0,-570.703Zm32.812,-120.703c-36.328,0 -67.578,12.891 -93.75,38.672c-25.781,26.172 -38.672,57.422 -38.672,93.75l0,547.266c0,36.328 12.891,67.578 38.672,93.75c26.172,25.781 57.422,38.672 93.75,38.672c36.719,0 67.969,-12.891 93.75,-38.672c26.172,-26.172 39.258,-57.422 39.258,-93.75l0,-547.266c0,-36.328 -13.086,-67.578 -39.258,-93.75c-25.781,-25.781 -57.031,-38.672 -93.75,-38.672Z" style="fill-rule:nonzero;"/><path d="M1903.644,1365.793c0,-8.984 3.32,-16.602 9.961,-22.852c6.25,-6.641 13.867,-9.961 22.852,-9.961c8.984,0 16.797,3.32 23.438,9.961c6.25,6.25 9.375,13.867 9.375,22.852l0,570.703c0,8.984 -3.125,16.602 -9.375,22.852c-6.641,6.25 -14.453,9.375 -23.438,9.375c-8.984,0 -16.602,-3.125 -22.852,-9.375c-6.641,-6.25 -9.961,-13.867 -9.961,-22.852l0,-570.703Zm32.812,-120.703c-36.328,0 -67.578,12.891 -93.75,38.672c-25.781,26.172 -38.672,57.422 -38.672,93.75l0,547.266c0,36.328 12.891,67.578 38.672,93.75c26.172,25.781 57.422,38.672 93.75,38.672c36.719,0 67.969,-12.891 93.75,-38.672c26.172,-26.172 39.258,-57.422 39.258,-93.75l0,-547.266c0,-36.328 -13.086,-67.578 -39.258,-93.75c-25.781,-25.781 -57.031,-38.672 -93.75,-38.672Z" style="fill-rule:nonzero;"/><path d="M2295.05,1356.418l0,-98.438l-196.289,0l0,785.742l98.438,0l0,-343.359l67.383,0l0,-98.437l-67.383,0l0,-245.508l97.852,0Z" style="fill-rule:nonzero;"/></g></g></svg>